<svg xmlns="http://www.w3.org/2000/svg" viewBox="0 0 1600 520" role="img" aria-label="Abstract graphite and amber measurement arcs">
  <defs>
    <linearGradient id="bg" x1="0" y1="0" x2="1" y2="1">
      <stop offset="0" stop-color="#11161b"/>
      <stop offset="0.58" stop-color="#202a2d"/>
      <stop offset="1" stop-color="#3a2b20"/>
    </linearGradient>
    <radialGradient id="glow" cx="76%" cy="35%" r="62%">
      <stop offset="0" stop-color="#f4b86a" stop-opacity=".32"/>
      <stop offset=".48" stop-color="#d9854d" stop-opacity=".09"/>
      <stop offset="1" stop-color="#11161b" stop-opacity="0"/>
    </radialGradient>
    <linearGradient id="arc" x1="0" y1="0" x2="1" y2="1">
      <stop offset="0" stop-color="#f9d38d" stop-opacity=".95"/>
      <stop offset=".48" stop-color="#db8b52" stop-opacity=".72"/>
      <stop offset="1" stop-color="#8cc7b5" stop-opacity=".15"/>
    </linearGradient>
    <filter id="soft" x="-30%" y="-30%" width="160%" height="160%">
      <feGaussianBlur stdDeviation="16"/>
    </filter>
    <pattern id="grid" width="44" height="44" patternUnits="userSpaceOnUse">
      <path d="M44 0H0V44" fill="none" stroke="#d8e6df" stroke-opacity=".055" stroke-width="1"/>
    </pattern>
  </defs>
  <rect width="1600" height="520" fill="url(#bg)"/>
  <rect width="1600" height="520" fill="url(#glow)"/>
  <rect width="1600" height="520" fill="url(#grid)"/>
  <ellipse cx="1230" cy="210" rx="280" ry="110" fill="#e6a05c" opacity=".12" filter="url(#soft)"/>
  <g fill="none" stroke="url(#arc)" stroke-linecap="round">
    <path d="M860 496C915 280 1078 126 1314 89C1434 70 1532 83 1615 121" stroke-width="3" opacity=".9"/>
    <path d="M963 520C1004 335 1130 202 1301 159C1412 132 1516 141 1602 179" stroke-width="1.5" opacity=".6"/>
    <path d="M1050 512C1090 380 1180 286 1306 246C1401 216 1500 223 1587 253" stroke-width="1" opacity=".44"/>
    <circle cx="1240" cy="205" r="126" stroke-width="2" opacity=".65"/>
    <circle cx="1240" cy="205" r="182" stroke-width="1" opacity=".32"/>
    <circle cx="1240" cy="205" r="244" stroke-width="1" opacity=".22"/>
  </g>
  <g fill="#f8d18c">
    <circle cx="1240" cy="79" r="4" opacity=".9"/>
    <circle cx="1422" cy="205" r="3" opacity=".7"/>
    <circle cx="1240" cy="387" r="3" opacity=".5"/>
  </g>
  <path d="M76 392H714" stroke="#e5b273" stroke-opacity=".17"/>
  <path d="M76 414H548" stroke="#b8d7c8" stroke-opacity=".12"/>
  <path d="M76 436H396" stroke="#e5b273" stroke-opacity=".09"/>
</svg>
